<?xml version="1.0" encoding="UTF-8"?>
<svg id="Calque_1" xmlns="http://www.w3.org/2000/svg" version="1.1" viewBox="0 0 385.9 245.3">
  <!-- Generator: Adobe Illustrator 29.4.0, SVG Export Plug-In . SVG Version: 2.1.0 Build 152)  -->
  <defs>
    <style>
      .st0 {
        fill: #ca9e67;
      }

      .st1 {
        fill: #95c11f;
      }

      .st2 {
        fill: #634e42;
      }
    </style>
  </defs>
  <path class="st1" d="M168.7,75.2c16.2-33.5,48.4-57.2,85.8-60.4,34.8-3,69.4,12.3,91.5,39.1,22.5,27.2,30.5,64.4,21.4,98.5-8.8,32.8-33.2,60.4-65,72.5-41.2,15.7-88.3,1.9-117.1-30.7s-11.8.9-9.1,3.9c28.5,32.3,73,45.7,114.8,35.9,35.9-8.4,66.7-33.8,81.1-67.8,14.8-34.7,10.9-75.5-10-106.9-20.6-31-56-50-93.2-50.8s-89.5,24.8-109.5,66.2c-2.1,4.4,7.7,3.5,9.2.4h0Z"/>
  <g>
    <path class="st2" d="M17.6,77.7l11.2,45.6v-45.6h6.8v66.2h-6.9l-12.8-48.7v48.7h-6.8v-66.2h8.4Z"/>
    <path class="st2" d="M69.3,92.2v51.6h-5.2l-1.3-2.9c-2.5,2.4-5.7,3.5-9,3.5-5.8,0-10.7-4.1-10.7-12.5v-39.8h7.5v38.2c0,4.5,1.9,6.7,5.3,6.7s3.9-.8,5.7-2.6v-42.2h7.5Z"/>
    <path class="st2" d="M77.7,97.3c2.5-3.6,7.1-5.7,12-5.7,8.2,0,12.3,5.8,12.3,14v38.3h-4.7l-1.4-2.9c-2.5,2.1-5.9,3.5-9.5,3.5-5.7,0-10.9-3.5-10.9-13.4s3.1-12.3,10.6-18c2.4-1.8,5.5-3.8,8.7-5.8v-1.6c0-4.3-2-7.3-6.2-7.3s-5.4,1.5-6.8,4l-4.1-5.2ZM94.8,134.5v-19.9c-2,1.3-3.5,2.3-5,3.4-5.3,4.1-6.8,7.8-6.8,12.1s2.2,7.4,5.6,7.4,4.4-1.1,6.3-3Z"/>
    <path class="st2" d="M114.7,92.2l1.2,3c2.6-2.4,6-3.6,9.3-3.6,5.9,0,10.8,4.1,10.8,12.5v39.8h-7.5v-38.2c0-4.2-1.6-6.7-5.4-6.7s-4.1.9-6,2.7v42.2h-7.5v-51.6h5.2Z"/>
    <path class="st2" d="M150.4,131.6c0,3.5,2.3,5.5,5.4,5.5s5.5-1.9,5.5-5.5v-3.1l6.8-1.8v5.3c0,7.8-5.6,12.5-12.6,12.5s-12.4-4.7-12.4-12.5v-28c0-7.8,5.5-12.5,12.4-12.5s12.6,4.7,12.6,12.5v2.2h-6.8v-1.8c0-3.5-2.3-5.5-5.5-5.5s-5.4,1.9-5.4,5.5v27.1Z"/>
    <path class="st2" d="M181.7,127.6v4.1c0,3.5,2.3,5.5,5.4,5.5s5.5-1.9,5.5-5.5v-3.3l6.8-1.8v5.3c0,7.8-5.6,12.5-12.6,12.5s-12.4-4.7-12.4-12.5v-28c0-7.8,5.5-12.5,12.5-12.5s12.7,3.3,12.7,13.6-2.5,10.8-8.3,15.5c-2.4,2-5.6,4.4-9.6,6.9ZM181.7,120.4c2.4-1.6,4.5-3.1,5.8-4.4,3.5-3.2,4.8-6.2,4.8-10.3s-2.5-7.2-5.5-7.2-5.2,2.2-5.2,5.9v16Z"/>
    <path class="st2" d="M230.9,102.9v3.4h-6.8v-2.4c0-3.4-1.9-5.2-5.7-5.2s-5.7,1.9-5.7,5,.6,3.5,3.1,6.3c3.1,3.5,8.8,7.8,11.7,11.5,2.8,3.5,3.6,7,3.6,10.4,0,7.5-4,12.8-13,12.8s-13.2-4.5-13.2-12v-5.8l6.8,1.8v3.5c0,3.3,2.1,5.4,6.3,5.4s6-1.9,6-5.8-.7-3.9-3-6.5c-3.8-4.4-8.8-8-11.7-11.5-3-3.6-4.1-7-4.1-10.3,0-7.5,5.2-11.7,13.1-11.7s12.4,5.1,12.4,11.3Z"/>
    <path class="st0" d="M244.9,75v19.5c2.4-1.9,5.3-3,8.3-3,5.7,0,10.6,4.1,10.6,12.5v28c0,8.4-5,12.5-10.6,12.5s-6.8-1.4-9.4-3.9l-1.3,3.2h-5.2v-67l7.5-1.9ZM244.9,102v32.2c1.9,1.9,3.8,3,6.2,3,3.6,0,5.2-2.4,5.2-6.7v-24.8c0-4.2-1.6-6.7-5.2-6.7s-4.3,1-6.2,3Z"/>
    <path class="st0" d="M296,132c0,7.8-5.7,12.5-12.8,12.5s-12.8-4.7-12.8-12.5v-28c0-7.8,5.7-12.5,12.8-12.5s12.8,4.7,12.8,12.5v28ZM277.6,131.6c0,3.5,2.4,5.5,5.6,5.5s5.5-1.9,5.5-5.5v-27.1c0-3.5-2.3-5.5-5.5-5.5s-5.6,1.9-5.6,5.5v27.1Z"/>
    <path class="st0" d="M311.5,80.3c0,2.6-1.4,4.7-4.5,4.7s-4.3-2.1-4.3-4.7,1.4-4.6,4.3-4.6,4.5,2,4.5,4.6ZM310.9,92.2v51.6h-7.5v-51.6h7.5Z"/>
    <path class="st0" d="M343,102.9v3.4h-6.8v-2.4c0-3.4-1.9-5.2-5.7-5.2s-5.7,1.9-5.7,5,.6,3.5,3.1,6.3c3.1,3.5,8.8,7.8,11.7,11.5,2.8,3.5,3.6,7,3.6,10.4,0,7.5-4,12.8-13,12.8s-13.2-4.5-13.2-12v-5.8l6.8,1.8v3.5c0,3.3,2.1,5.4,6.3,5.4s6-1.9,6-5.8-.7-3.9-3-6.5c-3.8-4.4-8.8-8-11.7-11.5-3-3.6-4.1-7-4.1-10.3,0-7.5,5.2-11.7,13.1-11.7s12.4,5.1,12.4,11.3Z"/>
  </g>
  <g>
    <path class="st2" d="M159.3,179l-1,5.2h-2.5l4.5-22.4h2l-.2,2.1h.1c1.6-1.3,3.5-2.5,5.4-2.5s4.5,2,4.5,5.7c0,6-4.1,10.8-8.5,10.8s-3-.9-3.8-2.3h0l-.6,3.4ZM161.9,166.1l-1.5,7.5c.9,1.6,2,2.3,3.2,2.3,3.1,0,6-4,6-8.4s-1.1-4-2.9-4-3.4,1-4.8,2.6Z"/>
    <path class="st2" d="M174.7,172.2c0-6,4.1-10.8,8.5-10.8s3.1.9,3.8,2.4h.1l.6-2h2l-3.2,15.7h-2l.2-2.3h-.1c-1.5,1.6-3.5,2.7-5.5,2.7s-4.5-2-4.5-5.7ZM185.1,172.9l1.4-7c-.9-1.7-2-2.3-3.2-2.3-3.1,0-6,4-6,8.4s1.1,4,2.9,4,3.4-1,4.9-3Z"/>
    <path class="st2" d="M195,161.8h2l-.4,3h.1c1.3-1.9,2.9-3.4,4.9-3.4s1.1,0,1.5.3l-.9,2.2c-.3-.2-.8-.3-1.4-.3-1.6,0-3.3,1.4-4.7,4l-2,9.9h-2.5l3.1-15.7Z"/>
    <path class="st2" d="M213.5,156.3h6c4,0,6.7,1.5,6.7,5.2,0,5.2-3.9,7.5-9.3,7.5h-3.4l-1.7,8.5h-2.5l4.2-21.2ZM216.9,167c4.4,0,6.7-1.8,6.7-5.2s-1.7-3.5-4.8-3.5h-3.3l-1.7,8.6h3.1Z"/>
    <path class="st2" d="M226.5,172.2c0-6,4.1-10.8,8.5-10.8s3.1.9,3.8,2.4h.1l.6-2h2l-3.2,15.7h-2l.2-2.3h-.1c-1.5,1.6-3.5,2.7-5.5,2.7s-4.5-2-4.5-5.7ZM236.9,172.9l1.4-7c-.9-1.7-2-2.3-3.2-2.3-3.1,0-6,4-6,8.4s1.1,4,2.9,4,3.4-1,4.9-3Z"/>
    <path class="st2" d="M240.6,183.9l.8-1.8c.4.2.7.3,1.1.3,1.6,0,3-1.4,4.1-3.6l.6-1.1-2.7-15.8h2.5l1.2,8.8c.2,1.5.4,3.2.5,4.7h.1c.7-1.5,1.5-3.2,2.3-4.7l4.5-8.8h2.4l-9.2,17.1c-1.7,3-3.6,5.4-6.6,5.4s-1.2-.2-1.8-.5Z"/>
    <path class="st2" d="M257,175l1.5-1.2c1,1.4,2.4,2.3,4.1,2.3s3.3-1.2,3.3-2.6-.7-1.8-2.9-3c-2.4-1.3-3.6-2.5-3.6-4.3,0-2.8,2.5-4.7,5.4-4.7s3.5.9,4.6,2.1l-1.4,1.4c-.8-.9-1.8-1.5-3.3-1.5s-3,1.1-3,2.5,1.4,2,2.8,2.8c2.8,1.5,3.7,2.7,3.7,4.4,0,2.9-2.5,4.9-5.9,4.9s-4.3-1.3-5.4-3Z"/>
    <path class="st2" d="M271.4,172.2c0-6,4.1-10.8,8.5-10.8s3.1.9,3.8,2.4h.1l.6-2h2l-3.2,15.7h-2l.2-2.3h-.1c-1.5,1.6-3.5,2.7-5.5,2.7s-4.5-2-4.5-5.7ZM281.8,172.9l1.4-7c-.9-1.7-2-2.3-3.2-2.3-3.1,0-6,4-6,8.4s1.1,4,2.9,4,3.4-1,4.9-3Z"/>
    <path class="st2" d="M288.5,177.5l4.6-23.1h2.5l-1.3,6.2-.7,3.1h0c1.6-1.3,3.4-2.3,5.3-2.3,2.8,0,4.5,2,4.5,5.7,0,6-4.1,10.8-8.5,10.8s-3-.9-3.8-2.4h-.1l-.6,2h-2.1ZM293.3,166.1l-1.5,7.5c.9,1.7,2,2.3,3.2,2.3,3.1,0,6-4,6-8.4s-1.1-4-2.9-4-3.4,1-4.8,2.5Z"/>
    <path class="st2" d="M306.1,171.6c0-5.9,4.2-10.2,8.5-10.2s5.6,2.4,5.6,6.3c0,5.9-4.2,10.2-8.5,10.2s-5.6-2.4-5.6-6.3ZM317.7,167.9c0-2.8-1.2-4.4-3.4-4.4s-5.7,3.6-5.7,8,1.2,4.4,3.4,4.4,5.7-3.6,5.7-8Z"/>
    <path class="st2" d="M325.7,161.8h2.5l-3.2,15.7h-2.5l3.2-15.7ZM326.2,157.1c0-1.1.9-1.9,1.9-1.9s1.6.6,1.6,1.5-.9,1.8-1.9,1.8-1.6-.5-1.6-1.5Z"/>
    <path class="st2" d="M329.1,175l1.5-1.2c1,1.4,2.4,2.3,4.1,2.3s3.3-1.2,3.3-2.6-.7-1.8-2.9-3c-2.4-1.3-3.6-2.5-3.6-4.3,0-2.8,2.5-4.7,5.4-4.7s3.5.9,4.6,2.1l-1.4,1.4c-.8-.9-1.8-1.5-3.3-1.5s-3,1.1-3,2.5,1.4,2,2.8,2.8c2.8,1.5,3.7,2.7,3.7,4.4,0,2.9-2.5,4.9-5.9,4.9s-4.3-1.3-5.4-3Z"/>
  </g>
</svg>